<svg xmlns="http://www.w3.org/2000/svg" width="1200" height="470" viewBox="0 0 1200 470" role="img" aria-labelledby="title desc">
  <title id="title">Siyan Yang — Broad in AI, deep in practice</title>
  <desc id="desc">A pastel editorial banner using pink, pale yellow and deep blue.</desc>

  <rect width="1200" height="470" fill="#FFC9C9"/>
  <rect x="786" y="0" width="414" height="470" fill="#FFF1C7"/>
  <rect x="0" y="0" width="18" height="470" fill="#4A6FA5"/>

  <g fill="none" stroke="#4A6FA5" stroke-width="2">
    <rect x="64" y="54" width="188" height="38" rx="19" fill="#FFF1C7"/>
    <path d="M786 117 H1200" opacity="0.28"/>
    <path d="M786 235 H1200" opacity="0.28"/>
    <path d="M786 353 H1200" opacity="0.28"/>
  </g>

  <text x="89" y="80" fill="#4A6FA5" font-family="ui-monospace, SFMono-Regular, Menlo, Consolas, monospace" font-size="15" font-weight="700">BUILDING IN PUBLIC</text>

  <text x="64" y="182" fill="#4A6FA5" font-family="-apple-system, BlinkMacSystemFont, Segoe UI, sans-serif" font-size="62" font-weight="750">Broad in AI.</text>
  <text x="64" y="255" fill="#4A6FA5" font-family="-apple-system, BlinkMacSystemFont, Segoe UI, sans-serif" font-size="62" font-weight="750">Deep in practice.</text>

  <text x="67" y="320" fill="#4A6FA5" font-family="-apple-system, BlinkMacSystemFont, Segoe UI, sans-serif" font-size="21">A non-CS business student exploring how AI becomes</text>
  <text x="67" y="352" fill="#4A6FA5" font-family="-apple-system, BlinkMacSystemFont, Segoe UI, sans-serif" font-size="21">useful, trusted and real.</text>

  <rect x="64" y="391" width="566" height="45" rx="5" fill="#FFF1C7" stroke="#4A6FA5" stroke-width="2"/>
  <text x="87" y="420" fill="#4A6FA5" font-family="ui-monospace, SFMono-Regular, Menlo, Consolas, monospace" font-size="17" font-weight="700">AI PM (FDE) × AI STRATEGY × GTM</text>

  <g transform="translate(847 63)" fill="none" stroke="#4A6FA5" stroke-width="3">
    <circle cx="145" cy="145" r="116" fill="#FFC9C9" fill-opacity="0.45"/>
    <circle cx="145" cy="145" r="74"/>
    <circle cx="145" cy="145" r="18" fill="#4A6FA5"/>
    <path d="M145 29 V-18 M261 145 H308 M145 261 V308 M29 145 H-18"/>
    <path d="M63 63 L30 30 M227 63 L260 30 M227 227 L260 260 M63 227 L30 260" opacity="0.46"/>
  </g>
  <text x="992" y="215" text-anchor="middle" fill="#FFF1C7" font-family="ui-monospace, SFMono-Regular, Menlo, Consolas, monospace" font-size="14" font-weight="700">AI</text>
  <text x="992" y="426" text-anchor="middle" fill="#4A6FA5" font-family="ui-monospace, SFMono-Regular, Menlo, Consolas, monospace" font-size="16">SIYAN YANG / 2026</text>
</svg>
